# xmcd
#
# Track frame offsets:
# 150
# 17800
# 32059
# 47566
# 63546
# 79486
# 95744
# 110689
# 124587
# 140484
# 155054
# 171131
# 187134
# 202658
# 217504
# 231550
# 248463
# 266474
# 279741
# 296416
#
# Disc length: 4236 seconds
#
#
# Revision: 0
# Processed by: cddbd v1.5.2PL0 Copyright (c) Steve Scherf et al.
# Submitted via: FreeRIP 2.951 
#
DISCID=25108a14
DTITLE=Tchê Garotos 2010 - Luau Sertanejo
DYEAR=2010
DGENRE=Pop
TTITLE0=EU VOU CAIR NA ZOEIRA
TTITLE1=BEM FEITO PRA MIM
TTITLE2=AMOR DA HORA
TTITLE3=IMPLORA MEU AMOR
TTITLE4=ESSE CORPO NAO TE PERTENCE MAIS
TTITLE5=A MARVADA DA CACHAÇA
TTITLE6=TÁ DE BRINCADEIRA
TTITLE7=COMO EU TE QUERO
TTITLE8=CANSEI DE CHORAR
TTITLE9=ANJO MEU
TTITLE10=JEITO ANIMAL
TTITLE11=JUDIOU
TTITLE12=MULHER PRECISA DE AMOR
TTITLE13=TEM JEITO NAO
TTITLE14=O MEU AMOR ME FEZ FELIZ
TTITLE15=É PROBLEMA MEU
TTITLE16=VAMOS FAZER FESTA
TTITLE17=BOLA DE PAPEL
TTITLE18=É LÁ QUE MORA ELA
TTITLE19=MENININHA
EXTD=
EXTT0=
EXTT1=
EXTT2=
EXTT3=
EXTT4=
EXTT5=
EXTT6=
EXTT7=
EXTT8=
EXTT9=
EXTT10=
EXTT11=
EXTT12=
EXTT13=
EXTT14=
EXTT15=
EXTT16=
EXTT17=
EXTT18=
EXTT19=
PLAYORDER=
